<svg width="30" height="30" viewBox="0 0 13 8" fill="none" xmlns="http://www.w3.org/2000/svg">
<path d="M2.45836 1.06416L6.50002 5.26749L10.5417 1.06416C10.6381 0.963861 10.7526 0.884302 10.8786 0.830022C11.0046 0.775741 11.1397 0.747803 11.2761 0.747803C11.4125 0.747803 11.5475 0.775741 11.6735 0.830022C11.7995 0.884302 11.914 0.963861 12.0104 1.06416C12.1069 1.16446 12.1834 1.28353 12.2356 1.41457C12.2878 1.54561 12.3146 1.68607 12.3146 1.82791C12.3146 1.96975 12.2878 2.1102 12.2356 2.24125C12.1834 2.37229 12.1069 2.49136 12.0104 2.59166L7.22919 7.56416C7.13282 7.66458 7.01835 7.74426 6.89234 7.79862C6.76633 7.85299 6.63124 7.88097 6.49482 7.88097C6.35839 7.88097 6.2233 7.85299 6.09729 7.79862C5.97128 7.74426 5.85681 7.66458 5.76044 7.56416L0.97919 2.59166C0.882623 2.49143 0.806011 2.37239 0.753739 2.24133C0.701467 2.11028 0.674561 1.96979 0.674561 1.82791C0.674561 1.68603 0.701467 1.54554 0.753739 1.41448C0.806011 1.28343 0.882623 1.16438 0.97919 1.06416C1.38544 0.652492 2.05211 0.641659 2.45836 1.06416Z" fill="#3F4FB6"/>
</svg>
