<svg width="30" height="30" viewBox="0 0 15 24" fill="none" xmlns="http://www.w3.org/2000/svg">
<path d="M13.6458 20.0834L5.56249 12.0001L13.6458 3.91673C13.8387 3.72385 13.9917 3.49487 14.0961 3.24286C14.2005 2.99085 14.2542 2.72075 14.2542 2.44798C14.2542 2.1752 14.2005 1.9051 14.0961 1.65309C13.9917 1.40109 13.8387 1.17211 13.6458 0.979226C13.4529 0.786347 13.224 0.633347 12.972 0.528962C12.7199 0.424576 12.4498 0.37085 12.1771 0.37085C11.9043 0.37085 11.6342 0.424576 11.3822 0.528962C11.1302 0.633347 10.9012 0.786347 10.7083 0.979226L1.14582 10.5417C0.952686 10.7345 0.799462 10.9634 0.694918 11.2154C0.590373 11.4675 0.53656 11.7376 0.53656 12.0105C0.53656 12.2833 0.590373 12.5535 0.694918 12.8055C0.799462 13.0576 0.952686 13.2865 1.14582 13.4792L10.7083 23.0417C11.5208 23.8542 12.8333 23.8542 13.6458 23.0417C14.4375 22.2292 14.4583 20.8959 13.6458 20.0834Z" fill="#3F4FB6"/>
</svg>
