<svg width="30" height="30" viewBox="0 0 12 20" fill="none" xmlns="http://www.w3.org/2000/svg">
<path d="M1.48334 16.4666L7.95001 9.9999L1.48334 3.53323C1.32904 3.37893 1.20664 3.19575 1.12313 2.99414C1.03963 2.79253 0.996643 2.57645 0.996643 2.35823C0.996643 2.14002 1.03963 1.92394 1.12313 1.72233C1.20664 1.52072 1.32904 1.33754 1.48334 1.18323C1.63765 1.02893 1.82083 0.906531 2.02244 0.823023C2.22405 0.739515 2.44013 0.696533 2.65834 0.696533C2.87656 0.696533 3.09264 0.739515 3.29425 0.823023C3.49586 0.906531 3.67904 1.02893 3.83334 1.18323L11.4833 8.83323C12.1333 9.48324 12.1333 10.5332 11.4833 11.1832L3.83334 18.8332C3.67915 18.9877 3.49601 19.1103 3.29438 19.194C3.09276 19.2776 2.87662 19.3206 2.65834 19.3206C2.44006 19.3206 2.22393 19.2776 2.0223 19.194C1.82068 19.1103 1.63753 18.9877 1.48334 18.8332C0.850011 18.1832 0.833344 17.1166 1.48334 16.4666Z" fill="#3F4FB6"/>
</svg>
