<svg width="30" height="30" viewBox="0 0 29 31" fill="none" xmlns="http://www.w3.org/2000/svg">
<path d="M28.6094 19.3861L26.3706 17.472C26.4766 16.8226 26.5313 16.1595 26.5313 15.4965C26.5313 14.8334 26.4766 14.1703 26.3706 13.5209L28.6094 11.6068C28.7782 11.4623 28.8991 11.2697 28.9559 11.0548C29.0127 10.8399 29.0027 10.6128 28.9273 10.4037L28.8965 10.3148C28.2802 8.59225 27.3573 6.99541 26.1724 5.60144L26.1108 5.52966C25.9671 5.36065 25.7755 5.23916 25.5614 5.18119C25.3472 5.12323 25.1205 5.13151 24.9111 5.20496L22.1323 6.19275C21.1069 5.35193 19.9619 4.68884 18.7246 4.224L18.188 1.31873C18.1475 1.10012 18.0415 0.899008 17.884 0.742107C17.7264 0.585206 17.5249 0.479945 17.3062 0.440308L17.2139 0.423218C15.4331 0.101929 13.5601 0.101929 11.7793 0.423218L11.687 0.440308C11.4683 0.479945 11.2667 0.585206 11.1092 0.742107C10.9517 0.899008 10.8457 1.10012 10.8052 1.31873L10.2651 4.23767C9.03771 4.70261 7.89467 5.36535 6.88136 6.19959L4.08204 5.20496C3.87274 5.13093 3.64587 5.12235 3.43158 5.18035C3.21729 5.23835 3.02572 5.36018 2.88233 5.52966L2.82081 5.60144C1.63732 6.9964 0.714573 8.59297 0.0966866 10.3148L0.0659248 10.4037C-0.0878838 10.8309 0.0385812 11.3095 0.383796 11.6068L2.64991 13.5414C2.54395 14.184 2.49268 14.8402 2.49268 15.493C2.49268 16.1493 2.54395 16.8055 2.64991 17.4447L0.383796 19.3793C0.214934 19.5238 0.0940768 19.7164 0.0372959 19.9313C-0.019485 20.1462 -0.00949952 20.3733 0.0659248 20.5824L0.0966866 20.6713C0.715339 22.3939 1.63135 23.9833 2.82081 25.3847L2.88233 25.4564C3.02607 25.6254 3.21765 25.7469 3.43181 25.8049C3.64598 25.8629 3.87268 25.8546 4.08204 25.7811L6.88136 24.7865C7.89991 25.6239 9.03809 26.287 10.2651 26.7484L10.8052 29.6674C10.8457 29.886 10.9517 30.0871 11.1092 30.244C11.2667 30.4009 11.4683 30.5061 11.687 30.5458L11.7793 30.5629C13.5764 30.8859 15.4167 30.8859 17.2139 30.5629L17.3062 30.5458C17.5249 30.5061 17.7264 30.4009 17.884 30.244C18.0415 30.0871 18.1475 29.886 18.188 29.6674L18.7246 26.7621C19.9614 26.2985 21.1129 25.6332 22.1323 24.7933L24.9111 25.7811C25.1204 25.8552 25.3473 25.8637 25.5616 25.8057C25.7759 25.7477 25.9675 25.6259 26.1108 25.4564L26.1724 25.3847C27.3618 23.9799 28.2778 22.3939 28.8965 20.6713L28.9273 20.5824C29.0811 20.162 28.9546 19.6835 28.6094 19.3861ZM23.9439 13.9242C24.0293 14.4403 24.0737 14.9701 24.0737 15.4999C24.0737 16.0297 24.0293 16.5595 23.9439 17.0756L23.7183 18.4462L26.2715 20.6303C25.8844 21.522 25.3959 22.3661 24.8154 23.1459L21.6436 22.0214L20.5703 22.9032C19.7534 23.5731 18.8442 24.0995 17.8599 24.4686L16.5576 24.9574L15.9458 28.2728C14.9805 28.3822 14.0059 28.3822 13.0405 28.2728L12.4287 24.9506L11.1367 24.455C10.1626 24.0858 9.25684 23.5595 8.44678 22.893L7.37354 22.0077L4.18116 23.1425C3.6001 22.3597 3.11475 21.5155 2.7251 20.6268L5.30567 18.4222L5.0835 17.0551C5.00147 16.5458 4.95704 16.0194 4.95704 15.4999C4.95704 14.9769 4.99805 14.454 5.0835 13.9447L5.30567 12.5775L2.7251 10.3729C3.11134 9.48084 3.6001 8.64002 4.18116 7.8573L7.37354 8.99207L8.44678 8.10681C9.25684 7.44031 10.1626 6.91394 11.1367 6.5448L12.4321 6.05603L13.044 2.73377C14.0044 2.62439 14.9854 2.62439 15.9492 2.73377L16.561 6.0492L17.8633 6.53797C18.8442 6.90711 19.7568 7.43347 20.5737 8.1034L21.647 8.98523L24.8189 7.86072C25.3999 8.64343 25.8853 9.48767 26.2749 10.3763L23.7217 12.5604L23.9439 13.9242ZM14.5 9.14246C11.1777 9.14246 8.48438 11.8358 8.48438 15.1581C8.48438 18.4804 11.1777 21.1737 14.5 21.1737C17.8223 21.1737 20.5156 18.4804 20.5156 15.1581C20.5156 11.8358 17.8223 9.14246 14.5 9.14246ZM17.207 17.8651C16.852 18.2212 16.43 18.5035 15.9655 18.6959C15.5009 18.8883 15.0028 18.987 14.5 18.9862C13.478 18.9862 12.5176 18.5863 11.793 17.8651C11.4369 17.5101 11.1545 17.0881 10.9621 16.6235C10.7697 16.159 10.6711 15.6609 10.6719 15.1581C10.6719 14.1361 11.0718 13.1757 11.793 12.4511C12.5176 11.7264 13.478 11.33 14.5 11.33C15.522 11.33 16.4824 11.7264 17.207 12.4511C17.5631 12.8061 17.8455 13.2281 18.0379 13.6926C18.2303 14.1572 18.3289 14.6552 18.3281 15.1581C18.3281 16.1801 17.9282 17.1405 17.207 17.8651Z" fill="#3F4FB6"/>
</svg>
