<svg width="30" height="30" viewBox="0 0 29 31" fill="none" xmlns="http://www.w3.org/2000/svg">
<path d="M28.6094 19.3862L26.3706 17.4722C26.4766 16.8228 26.5313 16.1597 26.5313 15.4966C26.5313 14.8335 26.4766 14.1704 26.3706 13.521L28.6094 11.6069C28.7782 11.4624 28.8991 11.2698 28.9559 11.0549C29.0127 10.84 29.0027 10.6129 28.9273 10.4038L28.8965 10.3149C28.2802 8.59238 27.3573 6.99553 26.1724 5.60156L26.1108 5.52979C25.9671 5.36077 25.7755 5.23928 25.5614 5.18132C25.3472 5.12335 25.1205 5.13164 24.9111 5.20508L22.1323 6.19287C21.1069 5.35205 19.9619 4.68897 18.7246 4.22412L18.188 1.31885C18.1475 1.10024 18.0415 0.89913 17.884 0.742229C17.7264 0.585328 17.5249 0.480067 17.3062 0.44043L17.2139 0.42334C15.4331 0.102051 13.5601 0.102051 11.7793 0.42334L11.687 0.44043C11.4683 0.480067 11.2667 0.585328 11.1092 0.742229C10.9517 0.89913 10.8457 1.10024 10.8052 1.31885L10.2651 4.23779C9.03771 4.70273 7.89467 5.36547 6.88136 6.19971L4.08204 5.20508C3.87274 5.13105 3.64587 5.12247 3.43158 5.18047C3.21729 5.23847 3.02572 5.3603 2.88233 5.52979L2.82081 5.60156C1.63732 6.99652 0.714573 8.5931 0.0966866 10.3149L0.0659248 10.4038C-0.0878838 10.8311 0.0385812 11.3096 0.383796 11.6069L2.64991 13.5415C2.54395 14.1841 2.49268 14.8403 2.49268 15.4932C2.49268 16.1494 2.54395 16.8057 2.64991 17.4448L0.383796 19.3794C0.214934 19.524 0.0940768 19.7165 0.0372959 19.9314C-0.019485 20.1463 -0.00949952 20.3734 0.0659248 20.5825L0.0966866 20.6714C0.715339 22.394 1.63135 23.9834 2.82081 25.3848L2.88233 25.4565C3.02607 25.6256 3.21765 25.7471 3.43181 25.805C3.64598 25.863 3.87268 25.8547 4.08204 25.7813L6.88136 24.7866C7.89991 25.624 9.03809 26.2871 10.2651 26.7485L10.8052 29.6675C10.8457 29.8861 10.9517 30.0872 11.1092 30.2441C11.2667 30.401 11.4683 30.5063 11.687 30.5459L11.7793 30.563C13.5764 30.886 15.4168 30.886 17.2139 30.563L17.3062 30.5459C17.5249 30.5063 17.7264 30.401 17.884 30.2441C18.0415 30.0872 18.1475 29.8861 18.188 29.6675L18.7246 26.7622C19.9614 26.2986 21.1129 25.6333 22.1323 24.7935L24.9111 25.7813C25.1204 25.8553 25.3473 25.8639 25.5616 25.8059C25.7759 25.7479 25.9675 25.626 26.1108 25.4565L26.1724 25.3848C27.3618 23.98 28.2778 22.394 28.8965 20.6714L28.9273 20.5825C29.0811 20.1621 28.9546 19.6836 28.6094 19.3862V19.3862ZM23.9439 13.9243C24.0293 14.4404 24.0737 14.9702 24.0737 15.5C24.0737 16.0298 24.0293 16.5596 23.9439 17.0757L23.7183 18.4463L26.2715 20.6304C25.8844 21.5221 25.3959 22.3662 24.8154 23.146L21.6436 22.0215L20.5703 22.9033C19.7534 23.5732 18.8442 24.0996 17.8599 24.4688L16.5576 24.9575L15.9458 28.273C14.9805 28.3823 14.0059 28.3823 13.0405 28.273L12.4287 24.9507L11.1367 24.4551C10.1626 24.0859 9.25684 23.5596 8.44678 22.8931L7.37354 22.0078L4.18116 23.1426C3.6001 22.3599 3.11475 21.5156 2.7251 20.627L5.30567 18.4224L5.0835 17.0552C5.00147 16.5459 4.95704 16.0195 4.95704 15.5C4.95704 14.9771 4.99805 14.4541 5.0835 13.9448L5.30567 12.5776L2.7251 10.373C3.11134 9.48096 3.6001 8.64014 4.18116 7.85742L7.37354 8.99219L8.44678 8.10694C9.25684 7.44043 10.1626 6.91406 11.1367 6.54492L12.4321 6.05615L13.044 2.73389C14.0044 2.62451 14.9854 2.62451 15.9492 2.73389L16.561 6.04932L17.8633 6.53809C18.8442 6.90723 19.7568 7.4336 20.5737 8.10352L21.647 8.98535L24.8189 7.86084C25.3999 8.64356 25.8853 9.48779 26.2749 10.3765L23.7217 12.5605L23.9439 13.9243ZM14.5 9.14258C11.1777 9.14258 8.48438 11.8359 8.48438 15.1582C8.48438 18.4805 11.1777 21.1738 14.5 21.1738C17.8223 21.1738 20.5156 18.4805 20.5156 15.1582C20.5156 11.8359 17.8223 9.14258 14.5 9.14258ZM17.207 17.8652C16.852 18.2213 16.43 18.5037 15.9655 18.6961C15.5009 18.8885 15.0028 18.9871 14.5 18.9863C13.478 18.9863 12.5176 18.5864 11.793 17.8652C11.4369 17.5102 11.1545 17.0882 10.9621 16.6237C10.7697 16.1591 10.6711 15.661 10.6719 15.1582C10.6719 14.1362 11.0718 13.1758 11.793 12.4512C12.5176 11.7266 13.478 11.3301 14.5 11.3301C15.522 11.3301 16.4824 11.7266 17.207 12.4512C17.5631 12.8062 17.8455 13.2282 18.0379 13.6928C18.2303 14.1573 18.3289 14.6554 18.3281 15.1582C18.3281 16.1802 17.9282 17.1406 17.207 17.8652Z" fill="#F14141"/>
</svg>
