<svg width="30" height="30" viewBox="0 0 23 20" fill="none" xmlns="http://www.w3.org/2000/svg">
<path d="M14.6191 0H14.5691C13.6499 0.0107297 12.7485 0.254969 11.9496 0.709775C11.1507 1.16458 10.4805 1.81502 10.002 2.6C9.52349 1.81502 8.85331 1.16458 8.05441 0.709775C7.25552 0.254969 6.35413 0.0107297 5.43493 0H5.38494C3.92453 0.0433235 2.54012 0.66088 1.53215 1.71865C0.524181 2.77642 -0.026021 4.18906 0.00094655 5.65C0.117013 8.03617 0.915184 10.3389 2.30073 12.285C5.19445 16.4 10 20 10 20C10 20 14.807 16.4 17.6993 12.285C19.0848 10.3389 19.883 8.03617 19.9991 5.65C20.026 4.18973 19.4764 2.77768 18.4693 1.72002C17.4622 0.662364 16.0788 0.0443556 14.6191 0Z" fill="#F14141"/>
</svg>
