<svg width="30" height="30" viewBox="0 0 16 16" fill="none" xmlns="http://www.w3.org/2000/svg">
<path d="M8 16C6.55208 16 5.21354 15.6432 3.98438 14.9297C2.75521 14.2161 1.78385 13.2448 1.07031 12.0156C0.356771 10.7865 0 9.44792 0 8C0 6.55208 0.356771 5.21354 1.07031 3.98438C1.78385 2.75521 2.75521 1.78385 3.98438 1.07031C5.21354 0.356771 6.55208 0 8 0C9.44792 0 10.7865 0.356771 12.0156 1.07031C13.2448 1.78385 14.2161 2.75521 14.9297 3.98438C15.6432 5.21354 16 6.55208 16 8C16 9.44792 15.6432 10.7865 14.9297 12.0156C14.2161 13.2448 13.2448 14.2161 12.0156 14.9297C10.7865 15.6432 9.44792 16 8 16ZM12.8594 5.32812L12.1719 4.64062C12.0677 4.54688 11.9505 4.5 11.8203 4.5C11.6901 4.5 11.5729 4.54688 11.4688 4.64062L6.75 9.35938L4.51562 7.14062C4.42188 7.04688 4.30729 7 4.17188 7C4.03646 7 3.92188 7.04688 3.82812 7.14062L3.14062 7.82812C3.04688 7.92188 3 8.03646 3 8.17188C3 8.30729 3.04688 8.42708 3.14062 8.53125L5.51562 10.8906C5.52604 11.0052 5.56771 11.099 5.64062 11.1719L6.32812 11.8594C6.44271 11.974 6.58333 12.0156 6.75 11.9844C6.91667 12.0156 7.05729 11.974 7.17188 11.8594L7.85938 11.1719C7.92188 11.099 7.96354 11.0052 7.98438 10.8906L12.8594 6.01562C12.9531 5.92188 13 5.80729 13 5.67188C13 5.53646 12.9531 5.42188 12.8594 5.32812Z" fill="#30B12C"/>
</svg>
