<svg width="30" height="30" viewBox="0 0 31 29" fill="none" xmlns="http://www.w3.org/2000/svg">
<path d="M25.9242 2.33279C25.6644 1.90189 25.2979 1.54522 24.86 1.29719C24.4222 1.04915 23.9279 0.918129 23.4247 0.916748H7.5755C6.55758 0.916748 5.59946 1.45925 5.07592 2.33279L1.12529 8.9157C0.988579 9.14235 0.916464 9.40206 0.916749 9.66675C0.922573 11.0743 1.44101 12.4316 2.37508 13.4847V25.7084C2.37508 27.3169 3.68321 28.6251 5.29175 28.6251H25.7084C27.317 28.6251 28.6251 27.3169 28.6251 25.7084V13.4847C29.5592 12.4316 30.0776 11.0743 30.0834 9.66675C30.0837 9.40206 30.0116 9.14235 29.8749 8.9157L25.9242 2.33279ZM27.1434 10.0328C27.0534 10.7369 26.7101 11.3841 26.1776 11.8536C25.6451 12.323 24.9599 12.5824 24.2501 12.5834C22.6415 12.5834 21.3334 11.2753 21.3334 9.66675C21.3334 9.56758 21.297 9.48008 21.2765 9.38675L21.3057 9.38091L20.1959 3.83341H23.4247L27.1434 10.0328V10.0328ZM13.7778 3.83341H17.2209L18.4065 9.76154C18.3555 11.3249 17.0751 12.5834 15.5001 12.5834C13.9251 12.5834 12.6447 11.3249 12.5936 9.76154L13.7778 3.83341ZM7.5755 3.83341H10.8042L9.69592 9.38091L9.72508 9.38675C9.70321 9.48008 9.66675 9.56758 9.66675 9.66675C9.66675 11.2753 8.35862 12.5834 6.75008 12.5834C6.04024 12.5824 5.35505 12.323 4.82257 11.8536C4.29009 11.3841 3.94676 10.7369 3.85675 10.0328L7.5755 3.83341ZM12.5834 25.7084V21.3334H18.4167V25.7084H12.5834ZM21.3334 25.7084V21.3334C21.3334 19.7249 20.0253 18.4167 18.4167 18.4167H12.5834C10.9749 18.4167 9.66675 19.7249 9.66675 21.3334V25.7084H5.29175V15.293C5.75987 15.414 6.24258 15.5001 6.75008 15.5001C7.57815 15.5005 8.39677 15.3242 9.15123 14.9829C9.9057 14.6417 10.5786 14.1433 11.1251 13.5211C12.194 14.7345 13.7603 15.5001 15.5001 15.5001C17.2399 15.5001 18.8061 14.7345 19.8751 13.5211C20.4215 14.1433 21.0945 14.6417 21.8489 14.9829C22.6034 15.3242 23.422 15.5005 24.2501 15.5001C24.7576 15.5001 25.2403 15.414 25.7084 15.293V25.7084H21.3334Z" fill="#F14141"/>
</svg>
