<svg width="30" height="30" viewBox="0 0 15 15" fill="none" xmlns="http://www.w3.org/2000/svg">
<path d="M14.4309 5.19302H9.50538L8.0054 0.383273C7.97364 0.272807 7.90679 0.175673 7.81496 0.106532C7.72313 0.0373924 7.6113 0 7.49635 0C7.38139 0 7.26956 0.0373924 7.17773 0.106532C7.0859 0.175673 7.01906 0.272807 6.98729 0.383273L5.48731 5.19302H0.535498C0.388614 5.20008 0.250334 5.26437 0.150278 5.37213C0.0502221 5.47988 -0.00365318 5.62253 0.000192604 5.76952C0.000377724 5.80104 0.00383361 5.83245 0.0105049 5.86326C0.0165974 5.94327 0.0397439 6.02106 0.0783898 6.09139C0.117036 6.16172 0.170286 6.22297 0.234565 6.27102L4.28264 9.34285L2.72922 14.2107C2.69253 14.3252 2.69076 14.4481 2.72416 14.5636C2.75755 14.6791 2.82458 14.7821 2.91672 14.8594C2.9981 14.9391 3.10426 14.9887 3.21765 15C3.33943 14.9904 3.45575 14.9454 3.55233 14.8706L7.5001 11.8363L11.4507 14.8688C11.5464 14.945 11.6632 14.9902 11.7854 14.9981C11.8985 14.9889 12.0044 14.9389 12.0835 14.8575C12.1764 14.7809 12.2441 14.6779 12.2775 14.5622C12.311 14.4464 12.3087 14.3233 12.271 14.2088L10.7176 9.34566L14.7319 6.24477L14.8256 6.15104C14.927 6.04656 14.9887 5.90996 15 5.76483C14.9962 5.61485 14.9352 5.472 14.8293 5.36565C14.7235 5.2593 14.5809 5.19753 14.4309 5.19302Z" fill="#000000"/>
</svg>
