<svg width="30" height="30" viewBox="0 0 15 15" fill="none" xmlns="http://www.w3.org/2000/svg">
<path d="M14.4309 5.19302H9.50538L8.0054 0.383273C7.97364 0.272807 7.90679 0.175673 7.81496 0.106532C7.72313 0.0373924 7.6113 0 7.49635 0C7.38139 0 7.26956 0.0373924 7.17773 0.106532C7.0859 0.175673 7.01906 0.272807 6.98729 0.383273L5.48731 5.19302H0.535498C0.388614 5.20008 0.250334 5.26437 0.150278 5.37213C0.0502221 5.47988 -0.00365318 5.62253 0.000192604 5.76952C0.000377724 5.80104 0.00383361 5.83245 0.0105049 5.86326C0.0165974 5.94327 0.0397439 6.02106 0.0783898 6.09139C0.117036 6.16172 0.170286 6.22297 0.234565 6.27102L4.28264 9.34285L2.72922 14.2107C2.69253 14.3252 2.69076 14.4481 2.72416 14.5636C2.75755 14.6791 2.82458 14.7821 2.91672 14.8594C2.9981 14.9391 3.10426 14.9887 3.21765 15C3.33943 14.9904 3.45575 14.9454 3.55233 14.8706L7.5001 11.8363L11.4507 14.8688C11.5464 14.945 11.6632 14.9902 11.7854 14.9981C11.8985 14.9889 12.0044 14.9389 12.0835 14.8575C12.1764 14.7809 12.2441 14.6779 12.2775 14.5622C12.311 14.4464 12.3087 14.3233 12.271 14.2088L10.7176 9.34566L14.7319 6.24477L14.8256 6.15104C14.927 6.04656 14.9887 5.90996 15 5.76483C14.9962 5.61485 14.9352 5.472 14.8293 5.36565C14.7235 5.2593 14.5809 5.19753 14.4309 5.19302ZM10.1719 8.52826C10.006 8.66256 9.88452 8.84396 9.82361 9.04859C9.7627 9.25322 9.76517 9.47149 9.83069 9.67469L10.8385 12.8365C10.8494 12.8638 10.8514 12.8939 10.844 12.9224C10.8366 12.9508 10.8203 12.9762 10.7974 12.9948C10.7746 13.0133 10.7464 13.024 10.717 13.0254C10.6877 13.0268 10.6586 13.0187 10.6341 13.0024L8.0429 11.0123C7.88687 10.891 7.69492 10.8251 7.49728 10.8249C7.3004 10.8245 7.10916 10.8905 6.95448 11.0123L4.35951 12.9987C4.33514 13.0157 4.30587 13.0244 4.27613 13.0234C4.24639 13.0223 4.21781 13.0116 4.19471 12.9928C4.17161 12.9741 4.15525 12.9483 4.14811 12.9194C4.14097 12.8905 4.14344 12.8601 4.15514 12.8328L5.16669 9.67094C5.23306 9.46631 5.2356 9.24634 5.17398 9.04023C5.11236 8.83413 4.98949 8.65164 4.82169 8.51701L2.10954 6.4585C2.08599 6.44044 2.06846 6.4157 2.05922 6.3875C2.04999 6.3593 2.0495 6.32897 2.05781 6.30049C2.06613 6.27201 2.08285 6.2467 2.1058 6.22789C2.12875 6.20908 2.15685 6.19765 2.18641 6.19509H5.49106C5.69314 6.1902 5.88833 6.12064 6.04796 5.99663C6.20758 5.87262 6.32324 5.7007 6.37792 5.50611L7.36885 2.32648C7.37678 2.29892 7.39346 2.27469 7.41638 2.25744C7.43929 2.24019 7.4672 2.23087 7.49588 2.23087C7.52456 2.23087 7.55246 2.24019 7.57538 2.25744C7.59829 2.27469 7.61497 2.29892 7.62291 2.32648L8.61383 5.50611C8.66852 5.7007 8.78417 5.87262 8.9438 5.99663C9.10342 6.12064 9.29861 6.1902 9.5007 6.19509H12.7585C12.7879 6.19705 12.816 6.20798 12.8391 6.2264C12.8621 6.24483 12.879 6.26987 12.8873 6.29816C12.8957 6.32644 12.8952 6.35661 12.8859 6.38461C12.8766 6.41261 12.859 6.43709 12.8353 6.45475L10.1719 8.52826Z" fill="#F1E32A"/>
</svg>
