<svg width="30" height="30" viewBox="0 0 15 18" fill="none" xmlns="http://www.w3.org/2000/svg">
<path d="M1.07143 16.3125C1.07143 16.7601 1.24075 17.1893 1.54215 17.5057C1.84355 17.8222 2.25233 18 2.67857 18H12.3214C12.7477 18 13.1565 17.8222 13.4578 17.5057C13.7592 17.1893 13.9286 16.7601 13.9286 16.3125V4.50001H1.07143V16.3125ZM10.1786 7.31251C10.1786 7.16332 10.235 7.02025 10.3355 6.91476C10.4359 6.80927 10.5722 6.75001 10.7143 6.75001C10.8564 6.75001 10.9926 6.80927 11.0931 6.91476C11.1936 7.02025 11.25 7.16332 11.25 7.31251V15.1875C11.25 15.3367 11.1936 15.4798 11.0931 15.5853C10.9926 15.6907 10.8564 15.75 10.7143 15.75C10.5722 15.75 10.4359 15.6907 10.3355 15.5853C10.235 15.4798 10.1786 15.3367 10.1786 15.1875V7.31251ZM6.96429 7.31251C6.96429 7.16332 7.02073 7.02025 7.12119 6.91476C7.22166 6.80927 7.35792 6.75001 7.5 6.75001C7.64208 6.75001 7.77834 6.80927 7.87881 6.91476C7.97927 7.02025 8.03571 7.16332 8.03571 7.31251V15.1875C8.03571 15.3367 7.97927 15.4798 7.87881 15.5853C7.77834 15.6907 7.64208 15.75 7.5 15.75C7.35792 15.75 7.22166 15.6907 7.12119 15.5853C7.02073 15.4798 6.96429 15.3367 6.96429 15.1875V7.31251ZM3.75 7.31251C3.75 7.16332 3.80644 7.02025 3.90691 6.91476C4.00737 6.80927 4.14363 6.75001 4.28571 6.75001C4.42779 6.75001 4.56406 6.80927 4.66452 6.91476C4.76499 7.02025 4.82143 7.16332 4.82143 7.31251V15.1875C4.82143 15.3367 4.76499 15.4798 4.66452 15.5853C4.56406 15.6907 4.42779 15.75 4.28571 15.75C4.14363 15.75 4.00737 15.6907 3.90691 15.5853C3.80644 15.4798 3.75 15.3367 3.75 15.1875V7.31251ZM14.4643 1.12501H10.4464L10.1317 0.467584C10.065 0.327035 9.96233 0.208807 9.83515 0.126203C9.70798 0.0435979 9.56137 -0.000106452 9.41183 6.16385e-06H5.58482C5.43562 -0.000596082 5.28927 0.0429453 5.16255 0.125642C5.03582 0.208338 4.93385 0.326845 4.8683 0.467584L4.55357 1.12501H0.535714C0.393634 1.12501 0.257373 1.18427 0.156907 1.28976C0.0564412 1.39525 0 1.53832 0 1.68751L0 2.81251C0 2.96169 0.0564412 3.10476 0.156907 3.21025C0.257373 3.31574 0.393634 3.37501 0.535714 3.37501H14.4643C14.6064 3.37501 14.7426 3.31574 14.8431 3.21025C14.9436 3.10476 15 2.96169 15 2.81251V1.68751C15 1.53832 14.9436 1.39525 14.8431 1.28976C14.7426 1.18427 14.6064 1.12501 14.4643 1.12501Z" fill="#DB3838"/>
</svg>
