<svg width="30" height="30" viewBox="0 0 30 30" fill="none" xmlns="http://www.w3.org/2000/svg">
<path d="M2.5 7.5C2.5 7.16848 2.6317 6.85054 2.86612 6.61612C3.10054 6.3817 3.41848 6.25 3.75 6.25H26.25C26.5815 6.25 26.8995 6.3817 27.1339 6.61612C27.3683 6.85054 27.5 7.16848 27.5 7.5C27.5 7.83152 27.3683 8.14946 27.1339 8.38388C26.8995 8.6183 26.5815 8.75 26.25 8.75H3.75C3.41848 8.75 3.10054 8.6183 2.86612 8.38388C2.6317 8.14946 2.5 7.83152 2.5 7.5Z" fill="#555555"/>
<path d="M2.5 15.04C2.5 14.7085 2.6317 14.3906 2.86612 14.1562C3.10054 13.9217 3.41848 13.79 3.75 13.79H26.25C26.5815 13.79 26.8995 13.9217 27.1339 14.1562C27.3683 14.3906 27.5 14.7085 27.5 15.04C27.5 15.3716 27.3683 15.6895 27.1339 15.9239C26.8995 16.1583 26.5815 16.29 26.25 16.29H3.75C3.41848 16.29 3.10054 16.1583 2.86612 15.9239C2.6317 15.6895 2.5 15.3716 2.5 15.04Z" fill="#555555"/>
<path d="M3.75 21.3301C3.41848 21.3301 3.10054 21.4618 2.86612 21.6962C2.6317 21.9306 2.5 22.2486 2.5 22.5801C2.5 22.9116 2.6317 23.2295 2.86612 23.464C3.10054 23.6984 3.41848 23.8301 3.75 23.8301H26.25C26.5815 23.8301 26.8995 23.6984 27.1339 23.464C27.3683 23.2295 27.5 22.9116 27.5 22.5801C27.5 22.2486 27.3683 21.9306 27.1339 21.6962C26.8995 21.4618 26.5815 21.3301 26.25 21.3301H3.75Z" fill="#555555"/>
</svg>
