<svg width="30" height="30" viewBox="0 0 31 29" fill="none" xmlns="http://www.w3.org/2000/svg">
<path d="M25.9242 2.33267C25.6644 1.90176 25.2979 1.5451 24.86 1.29706C24.4222 1.04903 23.9279 0.918006 23.4247 0.916626H7.5755C6.55758 0.916626 5.59946 1.45913 5.07592 2.33267L1.12529 8.91558C0.988579 9.14222 0.916464 9.40194 0.916749 9.66662C0.922573 11.0742 1.44101 12.4315 2.37508 13.4845V25.7083C2.37508 27.3168 3.68321 28.625 5.29175 28.625H25.7084C27.317 28.625 28.6251 27.3168 28.6251 25.7083V13.4845C29.5592 12.4315 30.0776 11.0742 30.0834 9.66662C30.0837 9.40194 30.0116 9.14222 29.8749 8.91558L25.9242 2.33267ZM27.1434 10.0327C27.0534 10.7368 26.7101 11.384 26.1776 11.8534C25.6451 12.3228 24.9599 12.5823 24.2501 12.5833C22.6415 12.5833 21.3334 11.2752 21.3334 9.66662C21.3334 9.56746 21.297 9.47996 21.2765 9.38662L21.3057 9.38079L20.1959 3.83329H23.4247L27.1434 10.0327ZM13.7778 3.83329H17.2209L18.4065 9.76141C18.3555 11.3247 17.0751 12.5833 15.5001 12.5833C13.9251 12.5833 12.6447 11.3247 12.5936 9.76141L13.7778 3.83329ZM7.5755 3.83329H10.8042L9.69592 9.38079L9.72508 9.38662C9.70321 9.47996 9.66675 9.56746 9.66675 9.66662C9.66675 11.2752 8.35862 12.5833 6.75008 12.5833C6.04024 12.5823 5.35505 12.3228 4.82257 11.8534C4.29009 11.384 3.94676 10.7368 3.85675 10.0327L7.5755 3.83329ZM12.5834 25.7083V21.3333H18.4167V25.7083H12.5834ZM21.3334 25.7083V21.3333C21.3334 19.7247 20.0253 18.4166 18.4167 18.4166H12.5834C10.9749 18.4166 9.66675 19.7247 9.66675 21.3333V25.7083H5.29175V15.2929C5.75987 15.4139 6.24258 15.5 6.75008 15.5C7.57815 15.5004 8.39677 15.3241 9.15123 14.9828C9.9057 14.6415 10.5786 14.1432 11.1251 13.521C12.194 14.7343 13.7603 15.5 15.5001 15.5C17.2399 15.5 18.8061 14.7343 19.8751 13.521C20.4215 14.1432 21.0945 14.6415 21.8489 14.9828C22.6034 15.3241 23.422 15.5004 24.2501 15.5C24.7576 15.5 25.2403 15.4139 25.7084 15.2929V25.7083H21.3334Z" fill="#3F4FB6"/>
</svg>
