<svg width="30" height="30" viewBox="0 0 20 20" fill="none" xmlns="http://www.w3.org/2000/svg">
<path d="M16.8755 13.7503C16.4562 13.7498 16.0411 13.8341 15.6551 13.9979C15.2691 14.1618 14.9202 14.4019 14.6292 14.7038L6.21166 10.4947C6.26417 10.167 6.26417 9.83293 6.21166 9.50518L14.6292 5.29606C15.1332 5.8172 15.8028 6.1468 16.5231 6.22836C17.2435 6.30993 17.9698 6.13838 18.5775 5.74312C19.1853 5.34786 19.6367 4.75351 19.8543 4.06192C20.0719 3.37033 20.0423 2.62458 19.7704 1.95247C19.4985 1.28036 19.0013 0.723748 18.3641 0.378034C17.7268 0.0323194 16.9892 -0.0809716 16.2776 0.0575774C15.566 0.196126 14.9247 0.577888 14.4637 1.13743C14.0027 1.69698 13.7506 2.39946 13.7507 3.12449C13.7509 3.29011 13.7641 3.45546 13.7902 3.619L5.3722 7.82863C4.9396 7.3808 4.3831 7.07242 3.77406 6.94305C3.16502 6.81368 2.53122 6.86921 1.95396 7.10253C1.37669 7.33584 0.882283 7.7363 0.534141 8.25254C0.185999 8.76879 0 9.37727 0 9.99995C0 10.6226 0.185999 11.2311 0.534141 11.7473C0.882283 12.2636 1.37669 12.6641 1.95396 12.8974C2.53122 13.1307 3.16502 13.1862 3.77406 13.0568C4.3831 12.9275 4.9396 12.6191 5.3722 12.1713L13.7897 16.3804C13.6886 17.0116 13.7834 17.6586 14.0615 18.2342C14.3395 18.8098 14.7873 19.2863 15.3446 19.5995C15.9019 19.9126 16.5418 20.0472 17.178 19.9853C17.8141 19.9234 18.416 19.6678 18.9025 19.2531C19.3889 18.8383 19.7364 18.2844 19.8982 17.666C20.06 17.0475 20.0283 16.3943 19.8073 15.7945C19.5863 15.1947 19.1867 14.677 18.6624 14.3114C18.1381 13.9458 17.5142 13.7498 16.875 13.7498L16.8755 13.7503Z" fill="#F14141"/>
</svg>
