<svg width="30" height="30" viewBox="0 0 60 60" fill="none" xmlns="http://www.w3.org/2000/svg">
<path d="M6.66667 60H53.3333C55.1014 60 56.7971 59.2976 58.0474 58.0474C59.2976 56.7971 60 55.1014 60 53.3333V6.66667C60 4.89856 59.2976 3.20286 58.0474 1.95262C56.7971 0.702379 55.1014 0 53.3333 0H6.66667C4.89856 0 3.20286 0.702379 1.95262 1.95262C0.702379 3.20286 0 4.89856 0 6.66667V53.3333C0 55.1014 0.702379 56.7971 1.95262 58.0474C3.20286 59.2976 4.89856 60 6.66667 60ZM16.6667 36.6667L24.5433 44.5433L36.6667 26.6667L53.3333 50H6.66667L16.6667 36.6667Z" fill="#555555"/>
</svg>
