<svg width="132" height="19" viewBox="0 0 132 19" fill="none" xmlns="http://www.w3.org/2000/svg">
<path d="M14.3867 5.26172C14.1523 5.13672 13.8984 5.01172 13.625 4.88672C13.3594 4.76172 13.0664 4.65234 12.7461 4.55859C12.4258 4.45703 12.0781 4.375 11.7031 4.3125C11.3359 4.25 10.9336 4.21875 10.4961 4.21875C9.48047 4.21875 8.58203 4.39453 7.80078 4.74609C7.02734 5.08984 6.375 5.55469 5.84375 6.14062C5.3125 6.72656 4.91016 7.40625 4.63672 8.17969C4.36328 8.95312 4.22656 9.76953 4.22656 10.6289C4.22656 11.3398 4.33203 11.9688 4.54297 12.5156C4.75391 13.0625 5.05469 13.5234 5.44531 13.8984C5.83594 14.2656 6.30469 14.5469 6.85156 14.7422C7.39844 14.9297 8.01172 15.0234 8.69141 15.0234C9.12109 15.0234 9.52344 14.9961 9.89844 14.9414C10.2734 14.8789 10.6289 14.8008 10.9648 14.707C11.3008 14.6055 11.6172 14.4922 11.9141 14.3672C12.2188 14.2422 12.5078 14.1094 12.7812 13.9688L11.9844 17.543C11.4062 17.7852 10.7656 17.9688 10.0625 18.0938C9.36719 18.2266 8.58203 18.293 7.70703 18.293C6.53516 18.293 5.48438 18.1211 4.55469 17.7773C3.625 17.4258 2.83984 16.9297 2.19922 16.2891C1.55859 15.6484 1.06641 14.8828 0.722656 13.9922C0.386719 13.0938 0.21875 12.0938 0.21875 10.9922C0.21875 10.1094 0.3125 9.25 0.5 8.41406C0.6875 7.57031 0.96875 6.77734 1.34375 6.03516C1.72656 5.28516 2.20312 4.59766 2.77344 3.97266C3.35156 3.34766 4.02734 2.80859 4.80078 2.35547C5.58203 1.90234 6.46484 1.55078 7.44922 1.30078C8.44141 1.04297 9.53516 0.914062 10.7305 0.914062C11.1836 0.914062 11.6211 0.9375 12.043 0.984375C12.4648 1.03125 12.8672 1.09375 13.25 1.17188C13.6328 1.24219 13.9844 1.32422 14.3047 1.41797C14.6328 1.50391 14.9219 1.58984 15.1719 1.67578L14.3867 5.26172ZM26.5508 9.09375C26.5508 9.71094 26.418 10.2773 26.1523 10.793C25.8945 11.3086 25.457 11.7539 24.8398 12.1289C24.2305 12.5039 23.418 12.8008 22.4023 13.0195C21.3867 13.2305 20.1211 13.3477 18.6055 13.3711C18.5898 13.418 18.582 13.4609 18.582 13.5C18.582 13.5312 18.582 13.5664 18.582 13.6055C18.582 13.8477 18.6211 14.0898 18.6992 14.332C18.7773 14.5742 18.9102 14.793 19.0977 14.9883C19.293 15.1836 19.5469 15.3438 19.8594 15.4688C20.1719 15.5859 20.5625 15.6445 21.0312 15.6445C21.3125 15.6445 21.6172 15.6211 21.9453 15.5742C22.2812 15.5195 22.6211 15.4453 22.9648 15.3516C23.3086 15.25 23.6484 15.1328 23.9844 15C24.3281 14.8594 24.6445 14.707 24.9336 14.543L24.3594 17.3086C24.1172 17.4336 23.8398 17.5547 23.5273 17.6719C23.2148 17.7891 22.875 17.8945 22.5078 17.9883C22.1484 18.082 21.7617 18.1562 21.3477 18.2109C20.9414 18.2656 20.5234 18.293 20.0938 18.293C19.1875 18.293 18.4102 18.1602 17.7617 17.8945C17.1133 17.6289 16.5781 17.2734 16.1562 16.8281C15.7422 16.375 15.4375 15.8477 15.2422 15.2461C15.0469 14.6445 14.9492 14.0039 14.9492 13.3242C14.9492 12.3008 15.1172 11.3281 15.4531 10.4062C15.7969 9.48438 16.2812 8.67578 16.9062 7.98047C17.5391 7.28516 18.2969 6.73438 19.1797 6.32812C20.0703 5.91406 21.0625 5.70703 22.1562 5.70703C22.9453 5.70703 23.6172 5.80078 24.1719 5.98828C24.7266 6.17578 25.1797 6.42969 25.5312 6.75C25.8828 7.0625 26.1406 7.42188 26.3047 7.82812C26.4688 8.23438 26.5508 8.65625 26.5508 9.09375ZM23.0234 9.14062C23.0234 8.85156 22.9141 8.61328 22.6953 8.42578C22.4844 8.23047 22.1836 8.13281 21.793 8.13281C21.4492 8.13281 21.1172 8.20703 20.7969 8.35547C20.4844 8.50391 20.1953 8.71094 19.9297 8.97656C19.6719 9.23438 19.4492 9.54688 19.2617 9.91406C19.0742 10.2734 18.9336 10.6641 18.8398 11.0859C20.2461 11.1016 21.293 10.9414 21.9805 10.6055C22.6758 10.2695 23.0234 9.78125 23.0234 9.14062ZM40.2148 8.85938C40.2148 8.97656 40.2031 9.13281 40.1797 9.32812C40.1562 9.52344 40.125 9.72656 40.0859 9.9375C40.0547 10.1484 40.0195 10.3555 39.9805 10.5586C39.9414 10.7539 39.9062 10.9219 39.875 11.0625L38.4102 18H34.6953L36.1367 11.1562C36.1836 10.9062 36.2305 10.6484 36.2773 10.3828C36.3242 10.1172 36.3477 9.91406 36.3477 9.77344C36.3477 9.39844 36.25 9.10156 36.0547 8.88281C35.8672 8.65625 35.582 8.54297 35.1992 8.54297C34.8789 8.54297 34.543 8.64453 34.1914 8.84766C33.8477 9.04297 33.5234 9.30469 33.2188 9.63281C32.9141 9.96094 32.6445 10.3398 32.4102 10.7695C32.1836 11.1914 32.0234 11.625 31.9297 12.0703L30.6875 18H26.9141L28.6953 9.77344C28.7656 9.41406 28.8359 9.05469 28.9062 8.69531C28.9766 8.32812 29.0391 7.98047 29.0938 7.65234C29.1484 7.31641 29.1953 7.00781 29.2344 6.72656C29.2812 6.4375 29.3164 6.19531 29.3398 6H32.9961C32.9727 6.21875 32.9453 6.44922 32.9141 6.69141C32.8906 6.92578 32.8633 7.15234 32.832 7.37109C32.8086 7.58984 32.7852 7.78516 32.7617 7.95703C32.7383 8.12109 32.7188 8.23828 32.7031 8.30859H32.75C33.0234 7.94922 33.332 7.61328 33.6758 7.30078C34.0195 6.98047 34.3828 6.70312 34.7656 6.46875C35.1562 6.23438 35.5586 6.05078 35.9727 5.91797C36.3867 5.77734 36.8008 5.70703 37.2148 5.70703C38.207 5.70703 38.9531 5.98438 39.4531 6.53906C39.9609 7.08594 40.2148 7.85938 40.2148 8.85938ZM50.1875 8.73047H47.3867L46.4258 13.2188C46.4102 13.3203 46.3906 13.4297 46.3672 13.5469C46.3438 13.6641 46.3203 13.7812 46.2969 13.8984C46.2812 14.0156 46.2656 14.1289 46.25 14.2383C46.2344 14.3398 46.2266 14.4258 46.2266 14.4961C46.2266 14.8086 46.3047 15.0391 46.4609 15.1875C46.6172 15.3359 46.875 15.4102 47.2344 15.4102C47.3281 15.4102 47.4453 15.3984 47.5859 15.375C47.7344 15.3516 47.8828 15.3203 48.0312 15.2812C48.1875 15.2422 48.3359 15.2031 48.4766 15.1641C48.6172 15.1172 48.7305 15.0781 48.8164 15.0469L48.2422 17.7891C48.1016 17.8438 47.9297 17.8984 47.7266 17.9531C47.5234 18.0078 47.3008 18.0586 47.0586 18.1055C46.8164 18.1523 46.5625 18.1914 46.2969 18.2227C46.0391 18.2539 45.7852 18.2695 45.5352 18.2695C44.9414 18.2695 44.4453 18.1914 44.0469 18.0352C43.6484 17.8867 43.3281 17.6797 43.0859 17.4141C42.8516 17.1406 42.6836 16.8242 42.582 16.4648C42.4883 16.1055 42.4414 15.7148 42.4414 15.293C42.4414 15.168 42.4492 15.0234 42.4648 14.8594C42.4805 14.6953 42.5 14.5273 42.5234 14.3555C42.5547 14.1836 42.5859 14.0117 42.6172 13.8398C42.6562 13.6602 42.6914 13.4961 42.7227 13.3477L43.6836 8.73047H41.832L42.4883 6H44.2578L44.8672 3.1875L48.7695 2.22656L47.9844 6H50.832L50.1875 8.73047ZM59.832 9.41016H59.8086C59.6445 9.32422 59.4336 9.24609 59.1758 9.17578C58.9258 9.10547 58.6914 9.07031 58.4727 9.07031C58.0117 9.07031 57.5977 9.17578 57.2305 9.38672C56.8633 9.58984 56.5391 9.86719 56.2578 10.2188C55.9766 10.5703 55.7383 10.9844 55.543 11.4609C55.3555 11.9297 55.2031 12.4297 55.0859 12.9609L54.0312 18H50.2812L51.9219 10.3477C52 9.98047 52.0742 9.60156 52.1445 9.21094C52.2227 8.82031 52.293 8.4375 52.3555 8.0625C52.4258 7.67969 52.4844 7.3125 52.5312 6.96094C52.5859 6.60938 52.6289 6.28906 52.6602 6H56.3281C56.3047 6.22656 56.2773 6.46094 56.2461 6.70312C56.2227 6.94531 56.1953 7.17969 56.1641 7.40625C56.1406 7.625 56.1133 7.82422 56.082 8.00391C56.0586 8.18359 56.0391 8.32422 56.0234 8.42578H56.0703C56.5547 7.52734 57.0625 6.85156 57.5938 6.39844C58.1328 5.9375 58.7539 5.70703 59.457 5.70703C59.6602 5.70703 59.8594 5.72656 60.0547 5.76562C60.25 5.80469 60.4258 5.83594 60.582 5.85938L59.832 9.41016ZM71.9375 14.0391C71.8828 14.2812 71.8281 14.5742 71.7734 14.918C71.7266 15.2617 71.6797 15.6211 71.6328 15.9961C71.5938 16.3633 71.5586 16.7266 71.5273 17.0859C71.5039 17.4375 71.4922 17.7422 71.4922 18H67.7422C67.7422 17.8828 67.7461 17.7344 67.7539 17.5547C67.7695 17.3672 67.7852 17.1797 67.8008 16.9922C67.8164 16.7969 67.832 16.6094 67.8477 16.4297C67.8711 16.2422 67.8906 16.0859 67.9062 15.9609H67.8594C67.6328 16.2656 67.3984 16.5586 67.1562 16.8398C66.9141 17.1211 66.6445 17.3711 66.3477 17.5898C66.0508 17.8008 65.7188 17.9688 65.3516 18.0938C64.9922 18.2266 64.5742 18.293 64.0977 18.293C63.5117 18.293 62.9883 18.1875 62.5273 17.9766C62.0742 17.7656 61.6914 17.4609 61.3789 17.0625C61.0664 16.6641 60.8281 16.1797 60.6641 15.6094C60.5 15.0312 60.418 14.3789 60.418 13.6523C60.418 13.2852 60.457 12.8359 60.5352 12.3047C60.6211 11.7656 60.7695 11.2031 60.9805 10.6172C61.1992 10.0234 61.5 9.4375 61.8828 8.85938C62.2656 8.27344 62.7539 7.74609 63.3477 7.27734C63.9492 6.80859 64.6719 6.42969 65.5156 6.14062C66.3672 5.85156 67.3672 5.70703 68.5156 5.70703C68.9609 5.70703 69.4062 5.72656 69.8516 5.76562C70.3047 5.79688 70.7461 5.84375 71.1758 5.90625C71.6133 5.96094 72.0352 6.02734 72.4414 6.10547C72.8477 6.18359 73.2266 6.26172 73.5781 6.33984L71.9375 14.0391ZM69.418 8.42578C69.2383 8.38672 69.0391 8.35938 68.8203 8.34375C68.6016 8.32031 68.3945 8.30859 68.1992 8.30859C67.6602 8.30859 67.1875 8.39844 66.7812 8.57812C66.375 8.75781 66.0195 8.99219 65.7148 9.28125C65.418 9.57031 65.168 9.89844 64.9648 10.2656C64.7617 10.6328 64.5977 11.0078 64.4727 11.3906C64.3555 11.7656 64.2695 12.1328 64.2148 12.4922C64.168 12.8516 64.1445 13.168 64.1445 13.4414C64.1445 13.7305 64.1719 14 64.2266 14.25C64.2891 14.4922 64.3828 14.7031 64.5078 14.8828C64.6328 15.0625 64.7852 15.2031 64.9648 15.3047C65.1523 15.4062 65.3672 15.457 65.6094 15.457C66.0547 15.457 66.4492 15.3281 66.793 15.0703C67.1445 14.8125 67.4492 14.4844 67.707 14.0859C67.9727 13.6797 68.1914 13.2266 68.3633 12.7266C68.543 12.2188 68.6875 11.7188 68.7969 11.2266L69.418 8.42578ZM80.1992 17.8945C80.0586 17.9336 79.8945 17.9727 79.707 18.0117C79.5273 18.0508 79.332 18.0859 79.1211 18.1172C78.918 18.1562 78.7031 18.1836 78.4766 18.1992C78.2578 18.2227 78.0391 18.2344 77.8203 18.2344C77.2969 18.2344 76.8477 18.1641 76.4727 18.0234C76.1055 17.8906 75.8008 17.7031 75.5586 17.4609C75.3164 17.2109 75.1367 16.918 75.0195 16.582C74.9102 16.2383 74.8555 15.8633 74.8555 15.457C74.8555 15.2852 74.8633 15.0938 74.8789 14.8828C74.9023 14.6719 74.9297 14.4531 74.9609 14.2266C74.9922 13.9922 75.0273 13.7578 75.0664 13.5234C75.1133 13.2812 75.1602 13.0508 75.207 12.832C75.2305 12.7305 75.2812 12.4844 75.3594 12.0938C75.4453 11.6953 75.5508 11.207 75.6758 10.6289C75.8008 10.0508 75.9375 9.41016 76.0859 8.70703C76.2344 7.99609 76.3867 7.27344 76.543 6.53906C76.707 5.79688 76.8633 5.07422 77.0117 4.37109C77.1602 3.66016 77.2969 3.01562 77.4219 2.4375C77.5469 1.85938 77.6484 1.375 77.7266 0.984375C77.8125 0.585938 77.8672 0.335938 77.8906 0.234375H81.6406L78.9805 12.75C78.918 13.0234 78.8516 13.332 78.7812 13.6758C78.7109 14.0117 78.6758 14.3047 78.6758 14.5547C78.6758 14.8516 78.7695 15.0586 78.957 15.1758C79.1445 15.293 79.3594 15.3516 79.6016 15.3516C79.8047 15.3516 80.0078 15.332 80.2109 15.293C80.4219 15.2461 80.6133 15.1875 80.7852 15.1172C80.6836 15.5859 80.5859 16.0508 80.4922 16.5117C80.3984 16.9648 80.3008 17.4258 80.1992 17.8945Z" fill="#3F4FB6"/>
<path d="M96.7344 4.99219C96.7344 5.51562 96.6484 6.00391 96.4766 6.45703C96.3047 6.91016 96.0469 7.32031 95.7031 7.6875C95.3672 8.04688 94.9492 8.35547 94.4492 8.61328C93.9492 8.87109 93.3672 9.0625 92.7031 9.1875V9.23438C93.2344 9.3125 93.6992 9.45703 94.0977 9.66797C94.4961 9.87109 94.8281 10.125 95.0938 10.4297C95.3672 10.7344 95.5703 11.0781 95.7031 11.4609C95.8359 11.8438 95.9023 12.2539 95.9023 12.6914C95.9023 13.4492 95.7539 14.1523 95.457 14.8008C95.1602 15.4414 94.7148 16 94.1211 16.4766C93.5273 16.9531 92.7852 17.3281 91.8945 17.6016C91.0117 17.8672 89.9766 18 88.7891 18H82.1211L85.6953 1.19531H91.6484C92.5625 1.19531 93.3398 1.29297 93.9805 1.48828C94.6289 1.67578 95.1562 1.94141 95.5625 2.28516C95.9688 2.62109 96.2656 3.02344 96.4531 3.49219C96.6406 3.95312 96.7344 4.45312 96.7344 4.99219ZM92.75 5.73047C92.75 5.45703 92.707 5.21484 92.6211 5.00391C92.543 4.78516 92.4141 4.60156 92.2344 4.45312C92.0547 4.30469 91.8203 4.19141 91.5312 4.11328C91.2422 4.02734 90.8906 3.98438 90.4766 3.98438H88.918L88.0508 7.96875H89.832C90.2852 7.96875 90.6914 7.91797 91.0508 7.81641C91.4102 7.70703 91.7148 7.55469 91.9648 7.35938C92.2227 7.16406 92.418 6.92969 92.5508 6.65625C92.6836 6.375 92.75 6.06641 92.75 5.73047ZM91.8945 12.7148C91.8945 12.1289 91.6914 11.6602 91.2852 11.3086C90.8789 10.957 90.2734 10.7812 89.4688 10.7812H87.4766L86.5156 15.2109H88.625C89.2031 15.2109 89.6992 15.1484 90.1133 15.0234C90.5273 14.8906 90.8633 14.7109 91.1211 14.4844C91.3867 14.2578 91.582 13.9961 91.707 13.6992C91.832 13.3945 91.8945 13.0664 91.8945 12.7148ZM106.848 9.41016H106.824C106.66 9.32422 106.449 9.24609 106.191 9.17578C105.941 9.10547 105.707 9.07031 105.488 9.07031C105.027 9.07031 104.613 9.17578 104.246 9.38672C103.879 9.58984 103.555 9.86719 103.273 10.2188C102.992 10.5703 102.754 10.9844 102.559 11.4609C102.371 11.9297 102.219 12.4297 102.102 12.9609L101.047 18H97.2969L98.9375 10.3477C99.0156 9.98047 99.0898 9.60156 99.1602 9.21094C99.2383 8.82031 99.3086 8.4375 99.3711 8.0625C99.4414 7.67969 99.5 7.3125 99.5469 6.96094C99.6016 6.60938 99.6445 6.28906 99.6758 6H103.344C103.32 6.22656 103.293 6.46094 103.262 6.70312C103.238 6.94531 103.211 7.17969 103.18 7.40625C103.156 7.625 103.129 7.82422 103.098 8.00391C103.074 8.18359 103.055 8.32422 103.039 8.42578H103.086C103.57 7.52734 104.078 6.85156 104.609 6.39844C105.148 5.9375 105.77 5.70703 106.473 5.70703C106.676 5.70703 106.875 5.72656 107.07 5.76562C107.266 5.80469 107.441 5.83594 107.598 5.85938L106.848 9.41016ZM118.953 14.0391C118.898 14.2812 118.844 14.5742 118.789 14.918C118.742 15.2617 118.695 15.6211 118.648 15.9961C118.609 16.3633 118.574 16.7266 118.543 17.0859C118.52 17.4375 118.508 17.7422 118.508 18H114.758C114.758 17.8828 114.762 17.7344 114.77 17.5547C114.785 17.3672 114.801 17.1797 114.816 16.9922C114.832 16.7969 114.848 16.6094 114.863 16.4297C114.887 16.2422 114.906 16.0859 114.922 15.9609H114.875C114.648 16.2656 114.414 16.5586 114.172 16.8398C113.93 17.1211 113.66 17.3711 113.363 17.5898C113.066 17.8008 112.734 17.9688 112.367 18.0938C112.008 18.2266 111.59 18.293 111.113 18.293C110.527 18.293 110.004 18.1875 109.543 17.9766C109.09 17.7656 108.707 17.4609 108.395 17.0625C108.082 16.6641 107.844 16.1797 107.68 15.6094C107.516 15.0312 107.434 14.3789 107.434 13.6523C107.434 13.2852 107.473 12.8359 107.551 12.3047C107.637 11.7656 107.785 11.2031 107.996 10.6172C108.215 10.0234 108.516 9.4375 108.898 8.85938C109.281 8.27344 109.77 7.74609 110.363 7.27734C110.965 6.80859 111.688 6.42969 112.531 6.14062C113.383 5.85156 114.383 5.70703 115.531 5.70703C115.977 5.70703 116.422 5.72656 116.867 5.76562C117.32 5.79688 117.762 5.84375 118.191 5.90625C118.629 5.96094 119.051 6.02734 119.457 6.10547C119.863 6.18359 120.242 6.26172 120.594 6.33984L118.953 14.0391ZM116.434 8.42578C116.254 8.38672 116.055 8.35938 115.836 8.34375C115.617 8.32031 115.41 8.30859 115.215 8.30859C114.676 8.30859 114.203 8.39844 113.797 8.57812C113.391 8.75781 113.035 8.99219 112.73 9.28125C112.434 9.57031 112.184 9.89844 111.98 10.2656C111.777 10.6328 111.613 11.0078 111.488 11.3906C111.371 11.7656 111.285 12.1328 111.23 12.4922C111.184 12.8516 111.16 13.168 111.16 13.4414C111.16 13.7305 111.188 14 111.242 14.25C111.305 14.4922 111.398 14.7031 111.523 14.8828C111.648 15.0625 111.801 15.2031 111.98 15.3047C112.168 15.4062 112.383 15.457 112.625 15.457C113.07 15.457 113.465 15.3281 113.809 15.0703C114.16 14.8125 114.465 14.4844 114.723 14.0859C114.988 13.6797 115.207 13.2266 115.379 12.7266C115.559 12.2188 115.703 11.7188 115.812 11.2266L116.434 8.42578ZM115.66 4.10156H112.906L116.598 0.292969H119.984L115.66 4.10156ZM130.52 9C130.355 8.91406 130.164 8.82812 129.945 8.74219C129.727 8.65625 129.492 8.57812 129.242 8.50781C129 8.4375 128.75 8.37891 128.492 8.33203C128.234 8.28516 127.984 8.26172 127.742 8.26172C127.172 8.26172 126.762 8.37109 126.512 8.58984C126.27 8.80859 126.148 9.07422 126.148 9.38672C126.148 9.70703 126.27 9.96875 126.512 10.1719C126.754 10.375 127.074 10.5781 127.473 10.7812C127.941 11.0078 128.352 11.2344 128.703 11.4609C129.055 11.6875 129.348 11.9375 129.582 12.2109C129.816 12.4844 129.992 12.793 130.109 13.1367C130.227 13.4727 130.285 13.8633 130.285 14.3086C130.285 14.7852 130.188 15.2617 129.992 15.7383C129.797 16.2148 129.48 16.6445 129.043 17.0273C128.605 17.4023 128.027 17.707 127.309 17.9414C126.598 18.1758 125.723 18.293 124.684 18.293C124.387 18.293 124.07 18.2773 123.734 18.2461C123.398 18.2148 123.066 18.1719 122.738 18.1172C122.41 18.0625 122.094 17.9961 121.789 17.918C121.492 17.8398 121.227 17.7539 120.992 17.6602L121.543 14.8359C121.746 14.9453 121.98 15.0547 122.246 15.1641C122.512 15.2734 122.793 15.375 123.09 15.4688C123.395 15.5547 123.707 15.6289 124.027 15.6914C124.348 15.7461 124.664 15.7734 124.977 15.7734C125.562 15.7734 125.996 15.6719 126.277 15.4688C126.566 15.2656 126.711 14.9883 126.711 14.6367C126.711 14.3398 126.602 14.082 126.383 13.8633C126.164 13.6367 125.785 13.3984 125.246 13.1484C124.801 12.9375 124.406 12.7188 124.062 12.4922C123.727 12.2656 123.441 12.0156 123.207 11.7422C122.973 11.4688 122.797 11.1641 122.68 10.8281C122.562 10.4922 122.504 10.1133 122.504 9.69141C122.504 9.24609 122.59 8.78906 122.762 8.32031C122.941 7.84375 123.234 7.41406 123.641 7.03125C124.047 6.64062 124.582 6.32422 125.246 6.08203C125.918 5.83203 126.742 5.70703 127.719 5.70703C128.016 5.70703 128.32 5.72266 128.633 5.75391C128.945 5.77734 129.25 5.8125 129.547 5.85938C129.844 5.90625 130.125 5.96094 130.391 6.02344C130.656 6.08594 130.891 6.14844 131.094 6.21094L130.52 9Z" fill="#F14141"/>
</svg>
